<svg width="33" height="27" viewBox="0 0 33 27" fill="none" xmlns="http://www.w3.org/2000/svg">
    <path d="M7.98557 19.5685C9.15835 19.9072 10.4238 20.0965 11.7342 20.0965C18.0746 20.0965 23.2158 15.7818 23.2158 10.4592C23.2158 5.1365 18.0746 0.821838 11.7316 0.821838C5.38852 0.821838 0.25 5.1365 0.25 10.4592C0.25 13.3632 1.79606 15.9765 4.21838 17.7445C4.41164 17.8832 4.53872 18.1125 4.53872 18.3738C4.53872 18.4592 4.52018 18.5392 4.499 18.6192C4.30575 19.3445 3.99601 20.5098 3.98277 20.5632C3.95894 20.6538 3.92188 20.7498 3.92188 20.8458C3.92188 21.0592 4.09396 21.2325 4.30575 21.2325C4.39046 21.2325 4.45665 21.2005 4.52813 21.1605L7.04311 19.6992C7.23107 19.5898 7.43227 19.5205 7.652 19.5205C7.76849 19.5205 7.88232 19.5392 7.99087 19.5712L7.98557 19.5685Z" fill="url(#paint0_linear_2149_1261)"/>
    <path d="M17.0935 7.37416C17.0935 8.22483 16.4079 8.91549 15.5634 8.91549C14.7189 8.91549 14.0332 8.22483 14.0332 7.37416C14.0332 6.52349 14.7189 5.83282 15.5634 5.83282C16.4079 5.83282 17.0935 6.52349 17.0935 7.37416Z" fill="#168743"/>
    <path d="M9.43534 7.3741C9.43534 8.22476 8.74968 8.91543 7.90517 8.91543C7.06067 8.91543 6.375 8.22476 6.375 7.3741C6.375 6.52343 7.06067 5.83276 7.90517 5.83276C8.74968 5.83276 9.43534 6.52343 9.43534 7.3741Z" fill="#168743"/>
    <path d="M25.573 25.6191C24.5961 25.9017 23.5425 26.0591 22.4491 26.0591C17.165 26.0591 12.8789 22.4617 12.8789 18.0271C12.8789 13.5924 17.1623 9.99506 22.4491 9.99506C27.7359 9.99506 32.0166 13.5924 32.0166 18.0271C32.0166 20.4484 30.7274 22.6271 28.7101 24.0991C28.5486 24.2164 28.4427 24.4057 28.4427 24.6217C28.4427 24.6937 28.4586 24.7577 28.4771 24.8271C28.6386 25.4324 28.8954 26.4004 28.9086 26.4457C28.9298 26.5231 28.9589 26.6004 28.9589 26.6804C28.9589 26.8591 28.816 27.0031 28.6386 27.0031C28.5698 27.0031 28.5142 26.9764 28.4533 26.9417L26.3592 25.7231C26.2004 25.6324 26.0336 25.5737 25.8509 25.5737C25.753 25.5737 25.6577 25.5897 25.5703 25.6164L25.573 25.6191Z" fill="url(#paint1_linear_2149_1261)"/>
    <path d="M17.9844 15.4569C17.9844 16.1662 18.5562 16.7422 19.2604 16.7422C19.9646 16.7422 20.5364 16.1662 20.5364 15.4569C20.5364 14.7476 19.9646 14.1716 19.2604 14.1716C18.5562 14.1716 17.9844 14.7476 17.9844 15.4569Z" fill="#919191"/>
    <path d="M24.3633 15.457C24.3633 16.1663 24.9351 16.7423 25.6393 16.7423C26.3435 16.7423 26.9153 16.1663 26.9153 15.457C26.9153 14.7476 26.3435 14.1716 25.6393 14.1716C24.9351 14.1716 24.3633 14.7476 24.3633 15.457Z" fill="#919191"/>
    <defs>
        <linearGradient id="paint0_linear_2149_1261" x1="11.7316" y1="21.2298" x2="11.7316" y2="0.821838" gradientUnits="userSpaceOnUse">
            <stop offset="0.06" stop-color="#05CD66"/>
            <stop offset="0.22" stop-color="#0DD068"/>
            <stop offset="0.48" stop-color="#26DA6F"/>
            <stop offset="0.81" stop-color="#4DEB7A"/>
            <stop offset="0.95" stop-color="#61F380"/>
        </linearGradient>
        <linearGradient id="paint1_linear_2149_1261" x1="22.4517" y1="27.0031" x2="22.4517" y2="9.99506" gradientUnits="userSpaceOnUse">
            <stop offset="0.08" stop-color="#D9D9D9"/>
            <stop offset="1" stop-color="#F0F0F0"/>
        </linearGradient>
    </defs>
</svg>
